<svg width="32" height="32" viewBox="0 0 32 32" fill="none" xmlns="http://www.w3.org/2000/svg">
<rect x="3.05176e-05" width="32" height="32" rx="6" fill="#225541"/>
<path d="M16.1057 27.9996C9.4904 28.0552 4.06264 22.7235 4.00047 16.1114C3.94451 9.49309 9.27901 4.06239 15.8943 4.00053C22.5096 3.93868 27.9435 9.27661 27.9995 15.8949C28.0617 22.507 22.7209 27.9439 16.1057 27.9996ZM16.0932 6.78393L15.9502 6.92619L15.4093 7.48287L14.8622 8.03955L14.3151 8.59622L13.7679 9.1529L13.2208 9.70958L12.6737 10.2663L12.1266 10.8229L11.5794 11.3796L11.0323 11.9363C9.59609 13.4022 9.61475 15.7588 11.082 17.1938L14.8933 20.9421C16.0684 22.0926 16.3108 23.8307 15.6269 25.2285C15.714 25.2285 15.8072 25.2285 15.8943 25.2285L16.0311 25.0863C16.0622 25.0554 16.0932 25.0182 16.1181 24.9811C16.0932 25.0182 16.0622 25.0492 16.0373 25.0863L16.5782 24.5296C16.6217 24.4863 16.659 24.4368 16.6963 24.3935C16.659 24.443 16.6217 24.4863 16.5782 24.5296L17.1191 23.9791L17.66 23.4224C17.6911 23.3915 17.716 23.3606 17.7408 23.3235C17.716 23.3544 17.6911 23.3915 17.66 23.4162L18.2009 22.8658C18.2693 22.7977 18.3191 22.7111 18.3812 22.6369C18.3191 22.7111 18.2693 22.7915 18.2071 22.8596L18.7481 22.3091C18.7481 22.3091 18.7543 22.2967 18.7605 22.2967L19.2952 21.7524C19.376 21.672 19.432 21.5792 19.5066 21.4988C19.4382 21.5854 19.3822 21.672 19.3014 21.7524L19.8423 21.1957C19.9107 21.1277 19.9604 21.0473 20.0226 20.9669C19.9604 21.0411 19.9169 21.1215 19.8485 21.1895L20.3894 20.639C20.3894 20.639 20.4267 20.5957 20.4392 20.5772C20.4205 20.5957 20.4081 20.6205 20.3894 20.639L20.9303 20.0885C22.3666 18.6226 22.3479 16.266 20.8806 14.8248L17.0694 11.0827C15.8943 9.93225 15.6518 8.19418 16.3357 6.7963C16.2487 6.7963 16.1616 6.7963 16.0684 6.7963" fill="white"/>
</svg>
