<svg width="144" height="28" viewBox="0 0 144 28" fill="none" xmlns="http://www.w3.org/2000/svg">
<g clip-path="url(#clip0_242_48)">
<path d="M37.5327 16.5424C37.6814 17.93 38.9451 20.3088 42.6074 20.3088C45.7989 20.3088 47.3352 18.2769 47.3352 16.2946C47.3352 14.5106 46.1211 13.0486 43.72 12.553L41.9855 12.1813C41.3189 12.0575 40.8729 11.6858 40.8729 11.0911C40.8729 10.3973 41.5667 9.87692 42.434 9.87692C43.8216 9.87692 44.3395 10.7937 44.4386 11.5123L47.1866 10.8929C47.0379 9.57958 45.8733 7.37427 42.4092 7.37427C39.7827 7.37427 37.8549 9.18312 37.8549 11.3636C37.8549 13.0734 38.9204 14.4858 41.2694 15.0061L42.88 15.3778C43.8216 15.576 44.1933 16.0221 44.1933 16.5672C44.1933 17.2114 43.6729 17.7813 42.5827 17.7813C41.1455 17.7813 40.4269 16.8893 40.3526 15.9229L37.5327 16.5424Z" fill="#1F1F1F"/>
<path d="M57.8563 19.937H61.0007C60.9511 19.5158 60.8768 18.6733 60.8768 17.7317V7.74585H57.5837V14.8326C57.5837 16.245 56.7412 17.2361 55.2818 17.2361C53.7455 17.2361 53.0517 16.1458 53.0517 14.783V7.74585H49.761V15.452C49.761 18.1034 51.446 20.2591 54.3897 20.2591C55.6782 20.2591 57.0906 19.7635 57.7596 18.6237C57.7596 19.1193 57.8092 19.6892 57.8587 19.937H57.8563Z" fill="#1F1F1F"/>
<path d="M67.6835 24.6475V18.7502C68.2782 19.5679 69.5147 20.2369 71.1972 20.2369C74.6389 20.2369 76.9409 17.5113 76.9409 13.8168C76.9409 10.1991 74.8842 7.47339 71.3211 7.47339C69.4899 7.47339 68.1296 8.29109 67.5844 9.23268V7.74596H64.3904V24.6451H67.6835V24.6475ZM73.6973 13.8415C73.6973 16.0221 72.3593 17.2858 70.6768 17.2858C68.9943 17.2858 67.634 15.9973 67.634 13.8415C67.634 11.6858 68.9968 10.4221 70.6768 10.4221C72.3618 10.4221 73.6998 11.6858 73.6998 13.8415H73.6973Z" fill="#1F1F1F"/>
<path d="M78.8042 16.6167C78.8042 18.5247 80.3901 20.284 82.9894 20.284C84.7957 20.284 85.9579 19.4415 86.5773 18.4752C86.5773 18.9459 86.6269 19.615 86.7012 19.9371H89.7218C89.6474 19.5159 89.5731 18.6486 89.5731 18.0044V12.0079C89.5731 9.5548 88.1359 7.37427 84.2754 7.37427C81.0071 7.37427 79.2502 9.48046 79.052 11.3884L81.9759 12.0079C82.075 10.9424 82.8655 10.0256 84.3002 10.0256C85.6878 10.0256 86.3568 10.7442 86.3568 11.6114C86.3568 12.0327 86.1338 12.3796 85.44 12.4787L82.4442 12.9247C80.4124 13.2221 78.8042 14.4362 78.8042 16.6167ZM83.6807 17.8309C82.6152 17.8309 82.0973 17.1371 82.0973 16.4185C82.0973 15.4769 82.7664 15.0061 83.6088 14.8822L86.3543 14.461V15.0061C86.3543 17.1619 85.0658 17.8309 83.6807 17.8309Z" fill="#1F1F1F"/>
<path d="M96.085 19.937V18.4502C96.7292 19.4909 98.0177 20.2343 99.7002 20.2343C103.167 20.2343 105.444 17.4839 105.444 13.7918C105.444 10.1741 103.387 7.42369 99.8241 7.42369C98.0152 7.42369 96.6797 8.21661 96.1345 9.08387V1.99219H92.8935V19.9345H96.085V19.937ZM102.151 13.8166C102.151 16.0467 100.813 17.2856 99.1303 17.2856C97.4701 17.2856 96.085 16.0219 96.085 13.8166C96.085 11.5865 97.4726 10.3724 99.1303 10.3724C100.815 10.3724 102.151 11.5865 102.151 13.8166Z" fill="#1F1F1F"/>
<path d="M107.307 16.6167C107.307 18.5247 108.893 20.284 111.49 20.284C113.299 20.284 114.463 19.4415 115.08 18.4752C115.08 18.9459 115.13 19.615 115.204 19.9371H118.225C118.15 19.5159 118.076 18.6486 118.076 18.0044V12.0079C118.076 9.5548 116.639 7.37427 112.778 7.37427C109.51 7.37427 107.753 9.48046 107.555 11.3884L110.476 12.0079C110.576 10.9424 111.368 10.0256 112.803 10.0256C114.191 10.0256 114.857 10.7442 114.857 11.6114C114.857 12.0327 114.634 12.3796 113.941 12.4787L110.947 12.9247C108.915 13.2221 107.307 14.4362 107.307 16.6167ZM112.184 17.8309C111.118 17.8309 110.598 17.1371 110.598 16.4185C110.598 15.4769 111.267 15.0061 112.109 14.8822L114.857 14.461V15.0061C114.857 17.1619 113.569 17.8309 112.184 17.8309Z" fill="#1F1F1F"/>
<path d="M120.353 16.5424C120.502 17.93 121.766 20.3088 125.428 20.3088C128.624 20.3088 130.158 18.2769 130.158 16.2946C130.158 14.5106 128.944 13.0486 126.543 12.553L124.808 12.1813C124.139 12.0575 123.696 11.6858 123.696 11.0911C123.696 10.3973 124.39 9.87692 125.257 9.87692C126.645 9.87692 127.162 10.7937 127.262 11.5123L130.01 10.8929C129.861 9.57958 128.696 7.37427 125.232 7.37427C122.606 7.37427 120.675 9.18312 120.675 11.3636C120.675 13.0734 121.741 14.4858 124.092 15.0061L125.703 15.3778C126.645 15.576 127.014 16.0221 127.014 16.5672C127.014 17.2114 126.493 17.7813 125.403 17.7813C123.968 17.7813 123.25 16.8893 123.176 15.9229L120.356 16.5424H120.353Z" fill="#1F1F1F"/>
<path d="M135.156 12.4539C135.23 11.3389 136.172 10.0504 137.882 10.0504C139.762 10.0504 140.553 11.2398 140.605 12.4539H135.156ZM140.925 15.6256C140.528 16.7159 139.686 17.484 138.152 17.484C136.519 17.484 135.156 16.3194 135.084 14.7088H143.796C143.796 14.6592 143.846 14.1636 143.846 13.6929C143.846 9.77781 141.594 7.37427 137.83 7.37427C134.713 7.37427 131.841 9.9017 131.841 13.792C131.841 17.9052 134.787 20.3088 138.127 20.3088C141.125 20.3088 143.053 18.5495 143.673 16.4433L140.925 15.6256Z" fill="#1F1F1F"/>
<path d="M15.8018 27.3259C15.6457 27.5204 15.4335 27.662 15.194 27.7317C14.9546 27.8013 14.6996 27.7955 14.4635 27.7151C14.2275 27.6347 14.0219 27.4836 13.8748 27.2823C13.7276 27.081 13.646 26.8393 13.6411 26.59L13.3933 9.92627H24.5957C25.0521 9.92605 25.4993 10.0546 25.8859 10.297C26.2725 10.5395 26.5828 10.8861 26.7813 11.2971C26.9798 11.708 27.0583 12.1666 27.0079 12.6201C26.9575 13.0737 26.7802 13.5038 26.4963 13.8611L15.8018 27.3259Z" fill="url(#paint0_linear_242_48)"/>
<path d="M15.8018 27.3259C15.6457 27.5204 15.4335 27.662 15.194 27.7317C14.9546 27.8013 14.6996 27.7955 14.4635 27.7151C14.2275 27.6347 14.0219 27.4836 13.8748 27.2823C13.7276 27.081 13.646 26.8393 13.6411 26.59L13.3933 9.92627H24.5957C25.0521 9.92605 25.4993 10.0546 25.8859 10.297C26.2725 10.5395 26.5828 10.8861 26.7813 11.2971C26.9798 11.708 27.0583 12.1666 27.0079 12.6201C26.9575 13.0737 26.7802 13.5038 26.4963 13.8611L15.8018 27.3259Z" fill="url(#paint1_linear_242_48)" fill-opacity="0.2"/>
<path d="M11.2474 0.512884C11.4035 0.318443 11.6157 0.176779 11.8551 0.107144C12.0946 0.0375096 12.3496 0.0432807 12.5857 0.123673C12.8217 0.204066 13.0273 0.355182 13.1744 0.556484C13.3216 0.757786 13.4032 0.999512 13.4081 1.24881L13.5172 17.9125H2.45345C1.99774 17.9119 1.55142 17.783 1.16562 17.5404C0.779815 17.2979 0.470131 16.9516 0.272041 16.5412C0.0739521 16.1308 -0.00453107 15.6729 0.0455825 15.2199C0.0956961 14.767 0.27238 14.3373 0.555393 13.9801L11.2474 0.512884Z" fill="#3ECF8E"/>
</g>
<defs>
<linearGradient id="paint0_linear_242_48" x1="13.3908" y1="13.6208" x2="23.3494" y2="17.7985" gradientUnits="userSpaceOnUse">
<stop stop-color="#249361"/>
<stop offset="1" stop-color="#3ECF8E"/>
</linearGradient>
<linearGradient id="paint1_linear_242_48" x1="8.97769" y1="7.57724" x2="13.5172" y2="16.1259" gradientUnits="userSpaceOnUse">
<stop/>
<stop offset="1" stop-opacity="0"/>
</linearGradient>
<clipPath id="clip0_242_48">
<rect width="143.965" height="28" fill="white" transform="translate(0.0177002)"/>
</clipPath>
</defs>
</svg>
